<svg 
 xmlns="http://www.w3.org/2000/svg"
 xmlns:xlink="http://www.w3.org/1999/xlink"
 width="252px" height="80px">
<path fill-rule="evenodd"  fill="rgb(112, 117, 76)"
 d="M251.648,30.016 C251.436,30.434 251.135,30.791 250.746,31.089 C250.356,31.386 249.892,31.613 249.354,31.768 C248.816,31.924 248.221,32.002 247.570,32.002 C246.579,32.002 245.510,31.804 244.363,31.407 L244.278,31.513 C245.000,32.547 245.503,33.588 245.786,34.636 C246.069,35.684 246.211,36.746 246.211,37.822 C246.211,38.941 246.059,40.034 245.754,41.103 C245.450,42.173 245.018,43.185 244.459,44.141 C243.899,45.097 243.227,45.975 242.441,46.775 C241.655,47.575 240.780,48.269 239.818,48.856 C238.855,49.444 237.821,49.901 236.717,50.226 C235.612,50.552 234.458,50.715 233.254,50.715 C232.943,50.715 232.635,50.701 232.330,50.672 C232.026,50.644 231.711,50.608 231.385,50.566 C230.889,50.665 230.436,50.814 230.026,51.012 C229.615,51.210 229.254,51.444 228.943,51.713 C228.631,51.982 228.390,52.269 228.220,52.573 C228.051,52.878 227.966,53.186 227.966,53.497 C227.966,54.120 228.210,54.651 228.698,55.090 C229.187,55.529 229.842,55.911 230.663,56.237 C231.484,56.563 232.437,56.850 233.520,57.097 C234.603,57.345 235.732,57.596 236.908,57.851 C237.970,58.078 239.017,58.311 240.051,58.552 C241.085,58.793 242.069,59.069 243.004,59.381 C243.938,59.692 244.802,60.057 245.595,60.474 C246.388,60.892 247.074,61.381 247.655,61.940 C248.236,62.499 248.689,63.151 249.015,63.894 C249.340,64.638 249.503,65.498 249.503,66.475 C249.503,67.707 249.280,68.893 248.834,70.033 C248.388,71.172 247.761,72.238 246.954,73.229 C246.147,74.220 245.184,75.127 244.066,75.948 C242.947,76.769 241.715,77.474 240.370,78.061 C239.024,78.649 237.591,79.102 236.069,79.421 C234.546,79.739 232.978,79.899 231.364,79.899 C230.429,79.899 229.445,79.831 228.412,79.697 C227.378,79.562 226.358,79.350 225.353,79.060 C224.347,78.769 223.388,78.394 222.475,77.934 C221.562,77.474 220.755,76.918 220.054,76.267 C219.353,75.615 218.797,74.865 218.386,74.015 C217.976,73.166 217.770,72.195 217.770,71.105 C217.770,70.199 217.919,69.328 218.216,68.493 C218.514,67.657 218.914,66.878 219.416,66.156 C219.919,65.434 220.503,64.761 221.169,64.138 C221.834,63.515 222.539,62.956 223.282,62.460 C224.026,61.965 224.783,61.536 225.555,61.175 C226.326,60.814 227.073,60.528 227.796,60.315 L227.838,60.209 C227.314,59.982 226.801,59.724 226.298,59.434 C225.795,59.143 225.342,58.800 224.939,58.404 C224.535,58.007 224.209,57.558 223.962,57.055 C223.714,56.552 223.590,55.982 223.590,55.345 C223.590,54.623 223.756,53.975 224.089,53.401 C224.422,52.828 224.843,52.318 225.353,51.872 C225.863,51.426 226.422,51.041 227.031,50.715 C227.640,50.389 228.227,50.106 228.794,49.865 C227.703,49.440 226.730,48.895 225.873,48.229 C225.017,47.564 224.294,46.806 223.707,45.957 C223.119,45.107 222.669,44.183 222.358,43.185 C222.047,42.187 221.891,41.143 221.891,40.052 C221.891,38.197 222.252,36.480 222.974,34.901 C223.696,33.322 224.670,31.959 225.895,30.813 C227.119,29.666 228.539,28.766 230.153,28.115 C231.768,27.464 233.467,27.138 235.251,27.138 C235.931,27.138 236.554,27.188 237.120,27.287 C237.686,27.386 238.210,27.510 238.692,27.658 C239.173,27.807 239.616,27.970 240.019,28.147 C240.423,28.324 240.802,28.497 241.156,28.667 C241.694,28.936 242.221,29.174 242.738,29.379 C243.255,29.584 243.853,29.687 244.533,29.687 C245.099,29.687 245.644,29.595 246.168,29.411 C246.692,29.227 247.152,28.961 247.549,28.614 C247.945,28.267 248.261,27.843 248.494,27.340 C248.728,26.837 248.845,26.267 248.845,25.630 C248.845,25.531 248.841,25.439 248.834,25.354 C248.827,25.269 248.816,25.170 248.802,25.056 L249.078,24.865 C250.055,25.319 250.781,25.881 251.255,26.554 C251.730,27.227 251.967,27.903 251.967,28.582 C251.967,29.121 251.861,29.598 251.648,30.016 ZM227.445,62.375 C226.546,62.885 225.749,63.505 225.056,64.234 C224.362,64.963 223.813,65.795 223.410,66.730 C223.006,67.664 222.804,68.684 222.804,69.788 C222.804,71.148 223.105,72.319 223.707,73.304 C224.309,74.288 225.088,75.105 226.043,75.757 C226.999,76.408 228.064,76.890 229.240,77.201 C230.415,77.512 231.576,77.668 232.723,77.668 C234.281,77.668 235.768,77.431 237.184,76.957 C238.600,76.482 239.842,75.824 240.911,74.982 C241.980,74.139 242.830,73.144 243.460,71.997 C244.090,70.850 244.406,69.597 244.406,68.238 C244.406,67.473 244.250,66.818 243.938,66.273 C243.627,65.728 243.198,65.254 242.653,64.850 C242.108,64.446 241.460,64.103 240.710,63.820 C239.959,63.536 239.138,63.275 238.246,63.034 C237.042,62.708 235.771,62.411 234.433,62.142 C233.095,61.873 231.718,61.561 230.302,61.207 C229.296,61.476 228.344,61.866 227.445,62.375 ZM240.911,37.238 C240.777,36.438 240.575,35.663 240.306,34.912 C240.037,34.161 239.694,33.461 239.276,32.809 C238.858,32.158 238.373,31.588 237.821,31.099 C237.269,30.611 236.639,30.225 235.931,29.942 C235.222,29.659 234.437,29.517 233.573,29.517 C232.766,29.517 232.040,29.644 231.396,29.899 C230.751,30.154 230.182,30.501 229.686,30.940 C229.190,31.379 228.769,31.885 228.422,32.459 C228.075,33.032 227.792,33.641 227.573,34.285 C227.353,34.930 227.190,35.585 227.084,36.250 C226.978,36.916 226.925,37.553 226.925,38.162 C226.925,38.941 226.995,39.737 227.137,40.551 C227.279,41.366 227.491,42.148 227.774,42.898 C228.058,43.649 228.415,44.357 228.847,45.022 C229.279,45.688 229.782,46.268 230.355,46.764 C230.929,47.260 231.576,47.649 232.299,47.932 C233.021,48.216 233.814,48.357 234.677,48.357 C235.442,48.357 236.132,48.226 236.748,47.964 C237.364,47.702 237.913,47.352 238.395,46.913 C238.876,46.474 239.287,45.960 239.626,45.373 C239.966,44.785 240.246,44.169 240.465,43.525 C240.685,42.881 240.848,42.222 240.954,41.549 C241.060,40.877 241.113,40.229 241.113,39.606 C241.113,38.827 241.046,38.038 240.911,37.238 ZM214.998,57.745 C214.142,58.099 213.289,58.386 212.439,58.605 C211.589,58.825 210.839,58.935 210.187,58.935 C209.423,58.935 208.821,58.729 208.382,58.319 C207.943,57.908 207.614,57.349 207.394,56.641 C207.175,55.933 207.033,55.104 206.970,54.156 C206.906,53.207 206.874,52.187 206.874,51.097 C206.874,49.766 206.920,48.396 207.012,46.987 C207.104,45.578 207.207,44.236 207.320,42.962 C207.433,41.687 207.536,40.530 207.628,39.489 C207.720,38.448 207.766,37.617 207.766,36.993 C207.766,35.337 207.454,34.115 206.832,33.329 C206.208,32.544 205.380,32.151 204.346,32.151 C203.525,32.151 202.661,32.498 201.755,33.191 C200.849,33.885 199.946,34.838 199.047,36.048 C198.148,37.259 197.284,38.689 196.456,40.339 C195.627,41.989 194.880,43.773 194.215,45.691 C193.549,47.610 192.997,49.617 192.558,51.713 C192.119,53.809 191.843,55.905 191.730,58.000 L187.291,58.552 L186.951,58.531 C187.064,57.186 187.170,55.720 187.269,54.134 C187.368,52.549 187.460,50.938 187.545,49.302 C187.630,47.667 187.705,46.045 187.768,44.438 C187.832,42.831 187.889,41.330 187.938,39.935 C187.988,38.541 188.023,37.291 188.045,36.186 C188.066,35.082 188.076,34.211 188.076,33.574 C188.076,32.993 188.034,32.505 187.949,32.108 C187.864,31.712 187.733,31.397 187.556,31.163 C187.379,30.929 187.156,30.763 186.887,30.664 C186.618,30.565 186.299,30.515 185.931,30.515 C185.421,30.515 184.812,30.586 184.104,30.728 C183.396,30.869 182.589,31.060 181.683,31.301 L181.365,29.772 C182.370,29.418 183.336,29.096 184.264,28.805 C185.191,28.515 186.044,28.264 186.823,28.051 C187.602,27.839 188.289,27.676 188.884,27.563 C189.478,27.450 189.946,27.393 190.285,27.393 C191.106,27.393 191.747,27.637 192.208,28.126 C192.668,28.614 192.898,29.453 192.898,30.643 C192.898,30.784 192.884,31.114 192.855,31.630 C192.827,32.147 192.788,32.802 192.739,33.595 C192.689,34.388 192.629,35.298 192.558,36.324 C192.487,37.351 192.406,38.445 192.314,39.606 C192.222,40.767 192.119,41.967 192.006,43.206 C191.892,44.445 191.772,45.681 191.645,46.913 L191.772,46.934 C192.848,43.281 194.002,40.197 195.234,37.684 C196.466,35.170 197.719,33.131 198.994,31.567 C200.268,30.002 201.535,28.873 202.796,28.179 C204.056,27.485 205.260,27.138 206.407,27.138 C207.200,27.138 207.964,27.287 208.701,27.584 C209.437,27.881 210.092,28.356 210.665,29.007 C211.239,29.659 211.696,30.498 212.035,31.524 C212.375,32.551 212.545,33.793 212.545,35.252 C212.545,35.677 212.520,36.247 212.471,36.962 C212.421,37.677 212.361,38.473 212.290,39.351 C212.219,40.229 212.138,41.160 212.046,42.144 C211.954,43.129 211.872,44.095 211.802,45.043 C211.731,45.992 211.671,46.895 211.621,47.752 C211.571,48.608 211.547,49.355 211.547,49.992 C211.547,51.097 211.593,51.996 211.685,52.690 C211.777,53.384 211.929,53.932 212.142,54.336 C212.354,54.740 212.637,55.016 212.991,55.164 C213.345,55.313 213.777,55.387 214.287,55.387 C215.023,55.387 215.788,55.285 216.581,55.079 C217.374,54.874 218.174,54.588 218.981,54.219 L219.385,55.324 C218.875,55.735 218.230,56.152 217.452,56.577 C216.673,57.002 215.855,57.391 214.998,57.745 ZM182.342,55.324 C181.832,55.735 181.191,56.152 180.419,56.577 C179.647,57.002 178.837,57.391 177.987,57.745 C177.138,58.099 176.306,58.386 175.492,58.605 C174.677,58.825 173.973,58.935 173.378,58.935 C172.982,58.935 172.620,58.903 172.295,58.839 C171.969,58.775 171.675,58.616 171.413,58.361 C171.151,58.106 170.918,57.731 170.713,57.235 C170.507,56.740 170.337,56.067 170.203,55.218 C170.068,54.368 169.965,53.306 169.895,52.031 C169.824,50.757 169.789,49.214 169.789,47.401 C169.789,46.339 169.799,45.139 169.820,43.801 C169.842,42.463 169.874,41.026 169.916,39.489 C169.958,37.953 170.015,36.332 170.086,34.625 C170.157,32.919 170.249,31.160 170.362,29.347 C170.390,28.951 170.496,28.628 170.681,28.380 C170.865,28.133 171.091,27.942 171.360,27.807 C171.629,27.673 171.916,27.581 172.221,27.531 C172.525,27.481 172.805,27.457 173.060,27.457 C174.008,27.457 174.900,27.676 175.736,28.115 C175.495,29.729 175.290,31.347 175.120,32.968 C174.950,34.590 174.812,36.158 174.706,37.673 C174.599,39.188 174.521,40.622 174.472,41.974 C174.422,43.327 174.398,44.548 174.398,45.638 C174.398,47.111 174.419,48.375 174.461,49.430 C174.504,50.485 174.575,51.373 174.674,52.095 C174.773,52.817 174.897,53.395 175.046,53.826 C175.194,54.258 175.378,54.591 175.598,54.825 C175.817,55.058 176.072,55.211 176.362,55.281 C176.652,55.352 176.982,55.387 177.350,55.387 C178.030,55.387 178.763,55.285 179.548,55.079 C180.334,54.874 181.131,54.588 181.938,54.219 L182.342,55.324 ZM176.426,17.198 C176.121,17.594 175.753,17.913 175.322,18.153 C174.890,18.394 174.412,18.514 173.888,18.514 C173.392,18.514 172.953,18.412 172.571,18.206 C172.189,18.001 171.863,17.732 171.594,17.399 C171.325,17.067 171.119,16.684 170.978,16.252 C170.836,15.821 170.766,15.378 170.766,14.925 C170.766,14.288 170.872,13.725 171.084,13.236 C171.297,12.748 171.573,12.337 171.913,12.004 C172.252,11.672 172.627,11.424 173.038,11.261 C173.449,11.098 173.852,11.017 174.249,11.017 C174.730,11.017 175.162,11.105 175.545,11.282 C175.927,11.459 176.256,11.704 176.532,12.015 C176.808,12.327 177.021,12.684 177.170,13.088 C177.318,13.491 177.393,13.927 177.393,14.394 C177.393,14.890 177.308,15.381 177.138,15.870 C176.968,16.359 176.730,16.801 176.426,17.198 ZM160.889,57.745 C160.039,58.099 159.207,58.386 158.393,58.605 C157.579,58.825 156.875,58.935 156.280,58.935 C155.841,58.935 155.458,58.885 155.133,58.786 C154.807,58.687 154.527,58.513 154.294,58.266 C154.060,58.018 153.862,57.689 153.699,57.278 C153.536,56.867 153.405,56.343 153.306,55.706 C153.179,54.856 153.076,53.865 152.998,52.732 C152.920,51.600 152.881,50.368 152.881,49.037 C152.881,47.621 152.934,46.180 153.041,44.714 C153.147,43.249 153.320,41.787 153.561,40.328 L153.370,40.286 C152.279,43.160 151.094,45.759 149.812,48.081 C148.530,50.403 147.210,52.386 145.851,54.028 C144.491,55.671 143.125,56.935 141.751,57.819 C140.378,58.704 139.061,59.147 137.801,59.147 C136.526,59.147 135.429,58.825 134.509,58.181 C133.588,57.536 132.834,56.687 132.246,55.632 C131.659,54.577 131.223,53.366 130.940,51.1000 C130.657,50.633 130.515,49.228 130.515,47.783 C130.515,46.042 130.707,44.325 131.089,42.633 C131.471,40.941 132.020,39.337 132.735,37.822 C133.450,36.307 134.310,34.901 135.316,33.606 C136.321,32.310 137.447,31.195 138.693,30.260 C139.939,29.326 141.287,28.593 142.739,28.062 C144.190,27.531 145.716,27.265 147.316,27.265 C148.435,27.265 149.550,27.407 150.662,27.690 C151.773,27.974 152.881,28.441 153.986,29.092 C154.057,26.685 154.145,24.239 154.251,21.754 C154.358,19.268 154.481,16.851 154.623,14.500 C154.764,12.150 154.920,9.926 155.090,7.831 C155.260,5.735 155.444,3.866 155.643,2.223 C155.685,1.883 155.798,1.590 155.982,1.342 C156.166,1.094 156.400,0.896 156.683,0.747 C156.966,0.598 157.285,0.489 157.639,0.418 C157.993,0.347 158.354,0.312 158.722,0.312 C159.572,0.312 160.464,0.538 161.399,0.991 C160.889,4.588 160.400,8.270 159.933,12.036 C159.466,15.803 159.055,19.555 158.701,23.293 C158.347,27.032 158.064,30.714 157.852,34.338 C157.639,37.963 157.533,41.440 157.533,44.767 C157.533,46.368 157.551,47.741 157.586,48.888 C157.621,50.035 157.678,51.005 157.756,51.798 C157.834,52.591 157.940,53.221 158.075,53.688 C158.209,54.156 158.379,54.517 158.584,54.771 C158.789,55.026 159.027,55.193 159.296,55.271 C159.565,55.349 159.883,55.387 160.252,55.387 C160.931,55.387 161.664,55.285 162.450,55.079 C163.236,54.874 164.032,54.588 164.840,54.219 L165.243,55.324 C164.733,55.735 164.093,56.152 163.321,56.577 C162.549,57.002 161.739,57.391 160.889,57.745 ZM148.081,29.559 C146.707,29.559 145.444,29.779 144.290,30.218 C143.135,30.657 142.098,31.262 141.178,32.034 C140.257,32.806 139.450,33.712 138.757,34.753 C138.063,35.793 137.489,36.912 137.036,38.109 C136.583,39.305 136.240,40.548 136.006,41.836 C135.772,43.125 135.656,44.406 135.656,45.681 C135.656,46.134 135.677,46.654 135.719,47.242 C135.762,47.830 135.843,48.439 135.964,49.068 C136.084,49.699 136.243,50.315 136.441,50.916 C136.640,51.518 136.887,52.060 137.185,52.541 C137.482,53.023 137.840,53.409 138.257,53.699 C138.675,53.989 139.167,54.134 139.734,54.134 C140.753,54.134 141.794,53.752 142.856,52.987 C143.918,52.223 144.955,51.210 145.968,49.950 C146.980,48.690 147.936,47.245 148.835,45.617 C149.734,43.989 150.534,42.314 151.235,40.594 C151.936,38.873 152.510,37.174 152.956,35.496 C153.402,33.818 153.674,32.292 153.773,30.919 C151.862,30.013 149.964,29.559 148.081,29.559 ZM124.101,57.745 C123.251,58.099 122.419,58.386 121.605,58.605 C120.791,58.825 120.086,58.935 119.492,58.935 C119.053,58.935 118.670,58.885 118.345,58.786 C118.019,58.687 117.739,58.513 117.506,58.266 C117.272,58.018 117.074,57.689 116.911,57.278 C116.748,56.867 116.617,56.343 116.518,55.706 C116.391,54.856 116.288,53.865 116.210,52.732 C116.132,51.600 116.093,50.368 116.093,49.037 C116.093,47.621 116.146,46.180 116.253,44.714 C116.359,43.249 116.532,41.787 116.773,40.328 L116.582,40.286 C115.491,43.160 114.305,45.759 113.024,48.081 C111.742,50.403 110.422,52.386 109.063,54.028 C107.703,55.671 106.337,56.935 104.963,57.819 C103.590,58.704 102.273,59.147 101.013,59.147 C99.738,59.147 98.641,58.825 97.720,58.181 C96.800,57.536 96.046,56.687 95.458,55.632 C94.871,54.577 94.435,53.366 94.152,51.1000 C93.869,50.633 93.727,49.228 93.727,47.783 C93.727,46.042 93.918,44.325 94.301,42.633 C94.683,40.941 95.232,39.337 95.947,37.822 C96.662,36.307 97.522,34.901 98.528,33.606 C99.533,32.310 100.659,31.195 101.905,30.260 C103.151,29.326 104.499,28.593 105.951,28.062 C107.402,27.531 108.928,27.265 110.528,27.265 C111.647,27.265 112.762,27.407 113.874,27.690 C114.985,27.974 116.093,28.441 117.198,29.092 C117.268,26.685 117.357,24.239 117.463,21.754 C117.569,19.268 117.693,16.851 117.835,14.500 C117.976,12.150 118.132,9.926 118.302,7.831 C118.472,5.735 118.656,3.866 118.854,2.223 C118.897,1.883 119.010,1.590 119.194,1.342 C119.378,1.094 119.612,0.896 119.895,0.747 C120.178,0.598 120.497,0.489 120.851,0.418 C121.205,0.347 121.566,0.312 121.934,0.312 C122.784,0.312 123.676,0.538 124.611,0.991 C124.101,4.588 123.612,8.270 123.145,12.036 C122.678,15.803 122.267,19.555 121.913,23.293 C121.559,27.032 121.276,30.714 121.063,34.338 C120.851,37.963 120.745,41.440 120.745,44.767 C120.745,46.368 120.762,47.741 120.798,48.888 C120.833,50.035 120.890,51.005 120.968,51.798 C121.046,52.591 121.152,53.221 121.286,53.688 C121.421,54.156 121.591,54.517 121.796,54.771 C122.001,55.026 122.239,55.193 122.508,55.271 C122.777,55.349 123.095,55.387 123.464,55.387 C124.143,55.387 124.876,55.285 125.662,55.079 C126.448,54.874 127.244,54.588 128.052,54.219 L128.455,55.324 C127.945,55.735 127.304,56.152 126.533,56.577 C125.761,57.002 124.950,57.391 124.101,57.745 ZM111.293,29.559 C109.919,29.559 108.656,29.779 107.502,30.218 C106.347,30.657 105.310,31.262 104.390,32.034 C103.469,32.806 102.662,33.712 101.969,34.753 C101.275,35.793 100.701,36.912 100.248,38.109 C99.795,39.305 99.452,40.548 99.218,41.836 C98.984,43.125 98.867,44.406 98.867,45.681 C98.867,46.134 98.889,46.654 98.931,47.242 C98.974,47.830 99.055,48.439 99.175,49.068 C99.296,49.699 99.455,50.315 99.653,50.916 C99.851,51.518 100.099,52.060 100.397,52.541 C100.694,53.023 101.052,53.409 101.469,53.699 C101.887,53.989 102.379,54.134 102.946,54.134 C103.965,54.134 105.006,53.752 106.068,52.987 C107.130,52.223 108.167,51.210 109.180,49.950 C110.192,48.690 111.148,47.245 112.047,45.617 C112.946,43.989 113.746,42.314 114.447,40.594 C115.148,38.873 115.722,37.174 116.168,35.496 C116.614,33.818 116.886,32.292 116.985,30.919 C115.074,30.013 113.176,29.559 111.293,29.559 ZM84.700,40.010 C83.043,40.760 81.093,41.366 78.849,41.826 C76.604,42.286 74.179,42.629 71.574,42.856 L71.574,43.217 C71.574,45.030 71.804,46.686 72.264,48.187 C72.724,49.688 73.358,50.973 74.165,52.042 C74.972,53.111 75.921,53.943 77.011,54.538 C78.101,55.133 79.277,55.430 80.537,55.430 C81.812,55.430 83.118,55.115 84.456,54.485 C85.794,53.855 87.150,52.832 88.523,51.416 C88.608,51.458 88.718,51.518 88.853,51.596 C88.987,51.674 89.111,51.759 89.224,51.851 C89.338,51.943 89.437,52.042 89.522,52.148 C89.607,52.255 89.649,52.357 89.649,52.456 C89.649,52.513 89.628,52.570 89.585,52.626 C88.792,53.731 87.939,54.690 87.026,55.504 C86.113,56.319 85.164,56.998 84.180,57.543 C83.195,58.088 82.194,58.492 81.174,58.754 C80.155,59.016 79.149,59.147 78.158,59.147 C76.459,59.147 74.901,58.800 73.485,58.106 C72.069,57.413 70.852,56.464 69.832,55.260 C68.813,54.057 68.016,52.644 67.443,51.023 C66.869,49.401 66.582,47.663 66.582,45.808 C66.582,44.293 66.749,42.778 67.081,41.263 C67.414,39.748 67.896,38.303 68.526,36.930 C69.156,35.556 69.924,34.278 70.830,33.096 C71.736,31.914 72.767,30.887 73.921,30.016 C75.075,29.145 76.342,28.462 77.723,27.966 C79.103,27.471 80.587,27.223 82.173,27.223 C83.220,27.223 84.219,27.365 85.167,27.648 C86.116,27.931 86.948,28.338 87.663,28.869 C88.378,29.400 88.948,30.055 89.373,30.834 C89.798,31.613 90.010,32.498 90.010,33.489 C90.010,34.933 89.539,36.194 88.598,37.270 C87.656,38.346 86.357,39.259 84.700,40.010 ZM84.201,32.533 C83.981,31.967 83.677,31.475 83.288,31.057 C82.898,30.639 82.434,30.310 81.896,30.069 C81.358,29.828 80.778,29.708 80.155,29.708 C79.234,29.708 78.399,29.871 77.648,30.197 C76.898,30.522 76.225,30.965 75.631,31.524 C75.036,32.084 74.512,32.735 74.059,33.478 C73.605,34.222 73.220,35.011 72.901,35.846 C72.583,36.682 72.324,37.539 72.126,38.417 C71.928,39.295 71.786,40.151 71.701,40.987 C73.712,40.845 75.514,40.601 77.107,40.254 C78.700,39.907 80.045,39.461 81.142,38.916 C82.240,38.371 83.079,37.719 83.659,36.962 C84.240,36.204 84.530,35.337 84.530,34.360 C84.530,33.708 84.420,33.099 84.201,32.533 ZM62.472,20.320 C61.998,21.863 61.428,23.559 60.762,25.407 C60.097,27.255 59.357,29.213 58.543,31.280 C57.728,33.347 56.851,35.503 55.909,37.747 C54.967,39.992 53.983,42.272 52.957,44.587 C51.930,46.902 50.875,49.231 49.792,51.575 C48.709,53.919 47.615,56.230 46.510,58.510 L42.899,58.807 L42.453,58.743 C42.043,56.138 41.636,53.709 41.232,51.458 C40.828,49.207 40.425,47.083 40.021,45.086 C39.618,43.089 39.221,41.192 38.832,39.394 C38.442,37.595 38.064,35.854 37.696,34.168 C37.172,31.818 36.704,29.648 36.294,27.658 C35.883,25.669 35.451,23.761 34.998,21.934 L34.849,21.934 C34.283,23.987 33.709,25.966 33.129,27.871 C32.548,29.775 31.953,31.659 31.345,33.521 C30.736,35.383 30.099,37.259 29.433,39.149 C28.767,41.040 28.066,42.997 27.330,45.022 C26.594,47.047 25.812,49.171 24.983,51.394 C24.155,53.618 23.273,55.989 22.339,58.510 L18.686,58.807 L18.240,58.743 C16.002,47.430 14.080,38.250 12.473,31.205 C10.865,24.161 9.587,19.237 8.639,16.433 C8.384,15.668 8.115,15.020 7.832,14.489 C7.548,13.958 7.216,13.523 6.833,13.183 C6.451,12.843 6.001,12.596 5.485,12.440 C4.968,12.284 4.348,12.206 3.626,12.206 C3.159,12.206 2.646,12.238 2.086,12.302 C1.527,12.365 0.907,12.454 0.228,12.567 L-0.006,10.677 C2.189,10.139 4.012,9.725 5.464,9.434 C6.915,9.144 8.115,8.999 9.064,8.999 C9.814,8.999 10.434,9.102 10.922,9.307 C11.411,9.512 11.825,9.841 12.165,10.294 C12.505,10.748 12.802,11.335 13.057,12.057 C13.312,12.780 13.581,13.658 13.864,14.691 C14.275,16.164 14.767,18.030 15.340,20.288 C15.914,22.547 16.547,25.212 17.241,28.285 C17.935,31.358 18.686,34.841 19.493,38.735 C20.300,42.629 21.142,46.955 22.020,51.713 L22.169,51.713 C22.877,49.787 23.610,47.748 24.367,45.596 C25.125,43.443 25.893,41.228 26.672,38.948 C27.450,36.668 28.229,34.346 29.008,31.981 C29.787,29.616 30.552,27.255 31.302,24.897 C32.053,22.539 32.778,20.207 33.479,17.898 C34.180,15.591 34.842,13.353 35.465,11.187 C35.536,10.932 35.706,10.748 35.975,10.634 C36.244,10.521 36.534,10.464 36.846,10.464 C37.157,10.464 37.441,10.507 37.696,10.592 C38.064,12.008 38.481,13.690 38.949,15.636 C39.416,17.583 39.905,19.693 40.414,21.966 C40.924,24.239 41.451,26.632 41.997,29.145 C42.542,31.659 43.080,34.204 43.611,36.781 C44.142,39.358 44.655,41.921 45.151,44.470 C45.646,47.019 46.107,49.454 46.531,51.777 L46.638,51.777 C47.657,49.653 48.673,47.447 49.686,45.160 C50.698,42.874 51.668,40.590 52.596,38.310 C53.523,36.031 54.387,33.786 55.187,31.577 C55.987,29.368 56.681,27.280 57.268,25.311 C57.856,23.343 58.316,21.531 58.649,19.874 C58.982,18.217 59.148,16.794 59.148,15.604 C59.148,14.911 59.088,14.210 58.968,13.502 C58.847,12.794 58.667,12.128 58.426,11.505 C58.185,10.882 57.877,10.316 57.502,9.806 C57.127,9.296 56.684,8.893 56.175,8.595 L56.260,8.192 C56.543,8.149 56.826,8.114 57.109,8.085 C57.392,8.057 57.675,8.043 57.959,8.043 C58.752,8.043 59.509,8.142 60.231,8.340 C60.954,8.539 61.591,8.850 62.143,9.275 C62.695,9.700 63.134,10.252 63.460,10.932 C63.786,11.611 63.948,12.426 63.948,13.374 C63.948,14.096 63.821,15.049 63.566,16.231 C63.311,17.414 62.947,18.777 62.472,20.320 Z"/>
</svg>